<?xml version="1.0" encoding="UTF-8" standalone="no"?>
<!-- Created with PhysiCell (http://PhysiCell.MathCancer.org/) -->
<svg 
 xmlns:dc="http://purl.org/dc/elements/1.1/" 
 xmlns:cc="http://creativecommons.org/ns#" 
 xmlns:rdf="http://www.w3.org/1999/02/22-rdf-syntax-ns#" 
 xmlns:svg="http://www.w3.org/2000/svg" 
 xmlns="http://www.w3.org/2000/svg" 
 version="1.1" 
 width="1000" 
 height="1070" 
 id="svg2">
  <rect x="0" y="0" width="1000" height="1070" stroke-width="2" stroke="white" fill="white"/>
  <text x="12.5" y="30"
   font-family="Arial" font-size="25" fill="black" >
   Current time: 0 days, 0 hours, and 0.00 minutes, z = 0.00 &#956;m
  </text>
  <text x="12.5" y="57.5"
   font-family="Arial" font-size="23.75" fill="black" >
   55 agents
  </text>
 <g id="tissue" 
    transform="translate(0,1070) scale(1,-1)">
  <g id="ECM">
  </g>
  <g id="cells">
   <g id="cell0">
  <circle cx="548.814" cy="592.845" r="8.41271" stroke-width="0.5" stroke="rgb(0,0,0)" fill="blue"/>
  <circle cx="548.814" cy="592.845" r="5.05167" stroke-width="0.5" stroke="rgb(0,0,0)" fill="blue"/>
   </g>
   <g id="cell1">
  <circle cx="844.266" cy="602.763" r="8.41271" stroke-width="0.5" stroke="rgb(0,0,0)" fill="blue"/>
  <circle cx="844.266" cy="602.763" r="5.05167" stroke-width="0.5" stroke="rgb(0,0,0)" fill="blue"/>
   </g>
   <g id="cell2">
  <circle cx="544.883" cy="847.252" r="8.41271" stroke-width="0.5" stroke="rgb(0,0,0)" fill="blue"/>
  <circle cx="544.883" cy="847.252" r="5.05167" stroke-width="0.5" stroke="rgb(0,0,0)" fill="blue"/>
   </g>
   <g id="cell3">
  <circle cx="623.564" cy="645.894" r="8.41271" stroke-width="0.5" stroke="rgb(0,0,0)" fill="blue"/>
  <circle cx="623.564" cy="645.894" r="5.05167" stroke-width="0.5" stroke="rgb(0,0,0)" fill="blue"/>
   </g>
   <g id="cell4">
  <circle cx="437.587" cy="297.535" r="8.41271" stroke-width="0.5" stroke="rgb(0,0,0)" fill="blue"/>
  <circle cx="437.587" cy="297.535" r="5.05167" stroke-width="0.5" stroke="rgb(0,0,0)" fill="blue"/>
   </g>
   <g id="cell5">
  <circle cx="56.713" cy="963.663" r="8.41271" stroke-width="0.5" stroke="rgb(0,0,0)" fill="blue"/>
  <circle cx="56.713" cy="963.663" r="5.05167" stroke-width="0.5" stroke="rgb(0,0,0)" fill="blue"/>
   </g>
   <g id="cell6">
  <circle cx="383.442" cy="477.665" r="8.41271" stroke-width="0.5" stroke="rgb(0,0,0)" fill="blue"/>
  <circle cx="383.442" cy="477.665" r="5.05167" stroke-width="0.5" stroke="rgb(0,0,0)" fill="blue"/>
   </g>
   <g id="cell7">
  <circle cx="812.169" cy="528.895" r="8.41271" stroke-width="0.5" stroke="rgb(0,0,0)" fill="blue"/>
  <circle cx="812.169" cy="528.895" r="5.05167" stroke-width="0.5" stroke="rgb(0,0,0)" fill="blue"/>
   </g>
   <g id="cell8">
  <circle cx="568.045" cy="392.785" r="8.41271" stroke-width="0.5" stroke="rgb(0,0,0)" fill="blue"/>
  <circle cx="568.045" cy="392.785" r="5.05167" stroke-width="0.5" stroke="rgb(0,0,0)" fill="blue"/>
   </g>
   <g id="cell9">
  <circle cx="836.079" cy="71.0361" r="8.41271" stroke-width="0.5" stroke="rgb(0,0,0)" fill="blue"/>
  <circle cx="836.079" cy="71.0361" r="5.05167" stroke-width="0.5" stroke="rgb(0,0,0)" fill="blue"/>
   </g>
   <g id="cell10">
  <circle cx="87.1293" cy="648.172" r="8.41271" stroke-width="0.5" stroke="rgb(0,0,0)" fill="blue"/>
  <circle cx="87.1293" cy="648.172" r="5.05167" stroke-width="0.5" stroke="rgb(0,0,0)" fill="blue"/>
   </g>
   <g id="cell11">
  <circle cx="368.242" cy="832.62" r="8.41271" stroke-width="0.5" stroke="rgb(0,0,0)" fill="blue"/>
  <circle cx="368.242" cy="832.62" r="5.05167" stroke-width="0.5" stroke="rgb(0,0,0)" fill="blue"/>
   </g>
   <g id="cell12">
  <circle cx="778.157" cy="140.351" r="8.41271" stroke-width="0.5" stroke="rgb(0,0,0)" fill="blue"/>
  <circle cx="778.157" cy="140.351" r="5.05167" stroke-width="0.5" stroke="rgb(0,0,0)" fill="blue"/>
   </g>
   <g id="cell13">
  <circle cx="870.087" cy="978.618" r="8.41271" stroke-width="0.5" stroke="rgb(0,0,0)" fill="blue"/>
  <circle cx="870.087" cy="978.618" r="5.05167" stroke-width="0.5" stroke="rgb(0,0,0)" fill="blue"/>
   </g>
   <g id="cell14">
  <circle cx="799.159" cy="800.911" r="8.41271" stroke-width="0.5" stroke="rgb(0,0,0)" fill="blue"/>
  <circle cx="799.159" cy="800.911" r="5.05167" stroke-width="0.5" stroke="rgb(0,0,0)" fill="blue"/>
   </g>
   <g id="cell15">
  <circle cx="520.477" cy="780.529" r="8.41271" stroke-width="0.5" stroke="rgb(0,0,0)" fill="blue"/>
  <circle cx="520.477" cy="780.529" r="5.05167" stroke-width="0.5" stroke="rgb(0,0,0)" fill="blue"/>
   </g>
   <g id="cell16">
  <circle cx="118.274" cy="720.633" r="8.41271" stroke-width="0.5" stroke="rgb(0,0,0)" fill="blue"/>
  <circle cx="118.274" cy="720.633" r="5.05167" stroke-width="0.5" stroke="rgb(0,0,0)" fill="blue"/>
   </g>
   <g id="cell17">
  <circle cx="582.02" cy="143.353" r="8.41271" stroke-width="0.5" stroke="rgb(0,0,0)" fill="blue"/>
  <circle cx="582.02" cy="143.353" r="5.05167" stroke-width="0.5" stroke="rgb(0,0,0)" fill="blue"/>
   </g>
   <g id="cell18">
  <circle cx="944.669" cy="758.616" r="8.41271" stroke-width="0.5" stroke="rgb(0,0,0)" fill="blue"/>
  <circle cx="944.669" cy="758.616" r="5.05167" stroke-width="0.5" stroke="rgb(0,0,0)" fill="blue"/>
   </g>
   <g id="cell19">
  <circle cx="105.908" cy="414.662" r="8.41271" stroke-width="0.5" stroke="rgb(0,0,0)" fill="blue"/>
  <circle cx="105.908" cy="414.662" r="5.05167" stroke-width="0.5" stroke="rgb(0,0,0)" fill="blue"/>
   </g>
   <g id="cell20">
  <circle cx="264.556" cy="186.332" r="8.41271" stroke-width="0.5" stroke="rgb(0,0,0)" fill="blue"/>
  <circle cx="264.556" cy="186.332" r="5.05167" stroke-width="0.5" stroke="rgb(0,0,0)" fill="blue"/>
   </g>
   <g id="cell21">
  <circle cx="736.918" cy="456.15" r="8.41271" stroke-width="0.5" stroke="rgb(0,0,0)" fill="blue"/>
  <circle cx="736.918" cy="456.15" r="5.05167" stroke-width="0.5" stroke="rgb(0,0,0)" fill="blue"/>
   </g>
   <g id="cell22">
  <circle cx="568.434" cy="135.218" r="8.41271" stroke-width="0.5" stroke="rgb(0,0,0)" fill="blue"/>
  <circle cx="568.434" cy="135.218" r="5.05167" stroke-width="0.5" stroke="rgb(0,0,0)" fill="blue"/>
   </g>
   <g id="cell23">
  <circle cx="324.141" cy="617.636" r="8.41271" stroke-width="0.5" stroke="rgb(0,0,0)" fill="blue"/>
  <circle cx="324.141" cy="617.636" r="5.05167" stroke-width="0.5" stroke="rgb(0,0,0)" fill="blue"/>
   </g>
   <g id="cell24">
  <circle cx="612.096" cy="222.321" r="8.41271" stroke-width="0.5" stroke="rgb(0,0,0)" fill="blue"/>
  <circle cx="612.096" cy="222.321" r="5.05167" stroke-width="0.5" stroke="rgb(0,0,0)" fill="blue"/>
   </g>
   <g id="cell25">
  <circle cx="386.489" cy="943.748" r="8.41271" stroke-width="0.5" stroke="rgb(0,0,0)" fill="blue"/>
  <circle cx="386.489" cy="943.748" r="5.05167" stroke-width="0.5" stroke="rgb(0,0,0)" fill="blue"/>
   </g>
   <g id="cell26">
  <circle cx="681.82" cy="449.95" r="8.41271" stroke-width="0.5" stroke="rgb(0,0,0)" fill="blue"/>
  <circle cx="681.82" cy="449.95" r="5.05167" stroke-width="0.5" stroke="rgb(0,0,0)" fill="blue"/>
   </g>
   <g id="cell27">
  <circle cx="613.063" cy="437.032" r="8.41271" stroke-width="0.5" stroke="rgb(0,0,0)" fill="blue"/>
  <circle cx="613.063" cy="437.032" r="5.05167" stroke-width="0.5" stroke="rgb(0,0,0)" fill="blue"/>
   </g>
   <g id="cell28">
  <circle cx="697.631" cy="99.2804" r="8.41271" stroke-width="0.5" stroke="rgb(0,0,0)" fill="blue"/>
  <circle cx="697.631" cy="99.2804" r="5.05167" stroke-width="0.5" stroke="rgb(0,0,0)" fill="blue"/>
   </g>
   <g id="cell29">
  <circle cx="969.809" cy="666.767" r="8.41271" stroke-width="0.5" stroke="rgb(0,0,0)" fill="blue"/>
  <circle cx="969.809" cy="666.767" r="5.05167" stroke-width="0.5" stroke="rgb(0,0,0)" fill="blue"/>
   </g>
   <g id="cell30">
  <circle cx="670.638" cy="170.91" r="8.41271" stroke-width="0.5" stroke="rgb(0,0,0)" fill="blue"/>
  <circle cx="670.638" cy="170.91" r="5.05167" stroke-width="0.5" stroke="rgb(0,0,0)" fill="blue"/>
   </g>
   <g id="cell31">
  <circle cx="358.152" cy="128.926" r="8.41271" stroke-width="0.5" stroke="rgb(0,0,0)" fill="blue"/>
  <circle cx="358.152" cy="128.926" r="5.05167" stroke-width="0.5" stroke="rgb(0,0,0)" fill="blue"/>
   </g>
   <g id="cell32">
  <circle cx="315.428" cy="607.831" r="8.41271" stroke-width="0.5" stroke="rgb(0,0,0)" fill="blue"/>
  <circle cx="315.428" cy="607.831" r="5.05167" stroke-width="0.5" stroke="rgb(0,0,0)" fill="blue"/>
   </g>
   <g id="cell33">
  <circle cx="325.047" cy="570.197" r="8.41271" stroke-width="0.5" stroke="rgb(0,0,0)" fill="blue"/>
  <circle cx="325.047" cy="570.197" r="5.05167" stroke-width="0.5" stroke="rgb(0,0,0)" fill="blue"/>
   </g>
   <g id="cell34">
  <circle cx="438.602" cy="634.274" r="8.41271" stroke-width="0.5" stroke="rgb(0,0,0)" fill="blue"/>
  <circle cx="438.602" cy="634.274" r="5.05167" stroke-width="0.5" stroke="rgb(0,0,0)" fill="blue"/>
   </g>
   <g id="cell35">
  <circle cx="958.949" cy="102.045" r="8.41271" stroke-width="0.5" stroke="rgb(0,0,0)" fill="blue"/>
  <circle cx="958.949" cy="102.045" r="5.05167" stroke-width="0.5" stroke="rgb(0,0,0)" fill="blue"/>
   </g>
   <g id="cell36">
  <circle cx="208.877" cy="635.059" r="8.41271" stroke-width="0.5" stroke="rgb(0,0,0)" fill="blue"/>
  <circle cx="208.877" cy="635.059" r="5.05167" stroke-width="0.5" stroke="rgb(0,0,0)" fill="blue"/>
   </g>
   <g id="cell37">
  <circle cx="995.3" cy="653.108" r="8.41271" stroke-width="0.5" stroke="rgb(0,0,0)" fill="blue"/>
  <circle cx="995.3" cy="653.108" r="5.05167" stroke-width="0.5" stroke="rgb(0,0,0)" fill="blue"/>
   </g>
   <g id="cell38">
  <circle cx="253.292" cy="414.369" r="8.41271" stroke-width="0.5" stroke="rgb(0,0,0)" fill="blue"/>
  <circle cx="253.292" cy="414.369" r="5.05167" stroke-width="0.5" stroke="rgb(0,0,0)" fill="blue"/>
   </g>
   <g id="cell39">
  <circle cx="474.698" cy="244.426" r="8.41271" stroke-width="0.5" stroke="rgb(0,0,0)" fill="blue"/>
  <circle cx="474.698" cy="244.426" r="5.05167" stroke-width="0.5" stroke="rgb(0,0,0)" fill="blue"/>
   </g>
   <g id="cell40">
  <circle cx="158.97" cy="338.008" r="8.41271" stroke-width="0.5" stroke="rgb(0,0,0)" fill="blue"/>
  <circle cx="158.97" cy="338.008" r="5.05167" stroke-width="0.5" stroke="rgb(0,0,0)" fill="blue"/>
   </g>
   <g id="cell41">
  <circle cx="674.752" cy="656.33" r="8.41271" stroke-width="0.5" stroke="rgb(0,0,0)" fill="blue"/>
  <circle cx="674.752" cy="656.33" r="5.05167" stroke-width="0.5" stroke="rgb(0,0,0)" fill="blue"/>
   </g>
   <g id="cell42">
  <circle cx="138.183" cy="778.345" r="8.41271" stroke-width="0.5" stroke="rgb(0,0,0)" fill="blue"/>
  <circle cx="138.183" cy="778.345" r="5.05167" stroke-width="0.5" stroke="rgb(0,0,0)" fill="blue"/>
   </g>
   <g id="cell43">
  <circle cx="949.571" cy="368.725" r="8.41271" stroke-width="0.5" stroke="rgb(0,0,0)" fill="blue"/>
  <circle cx="949.571" cy="368.725" r="5.05167" stroke-width="0.5" stroke="rgb(0,0,0)" fill="blue"/>
   </g>
   <g id="cell44">
  <circle cx="820.993" cy="13.5716" r="8.41271" stroke-width="0.5" stroke="rgb(0,0,0)" fill="blue"/>
  <circle cx="820.993" cy="13.5716" r="5.05167" stroke-width="0.5" stroke="rgb(0,0,0)" fill="blue"/>
   </g>
   <g id="cell45">
  <circle cx="622.846" cy="837.945" r="8.41271" stroke-width="0.5" stroke="rgb(0,0,0)" fill="blue"/>
  <circle cx="622.846" cy="837.945" r="5.05167" stroke-width="0.5" stroke="rgb(0,0,0)" fill="blue"/>
   </g>
   <g id="cell46">
  <circle cx="96.0984" cy="971.945" r="8.41271" stroke-width="0.5" stroke="rgb(0,0,0)" fill="blue"/>
  <circle cx="96.0984" cy="971.945" r="5.05167" stroke-width="0.5" stroke="rgb(0,0,0)" fill="blue"/>
   </g>
   <g id="cell47">
  <circle cx="878.193" cy="468.651" r="8.41271" stroke-width="0.5" stroke="rgb(0,0,0)" fill="blue"/>
  <circle cx="878.193" cy="468.651" r="5.05167" stroke-width="0.5" stroke="rgb(0,0,0)" fill="blue"/>
   </g>
   <g id="cell48">
  <circle cx="976.761" cy="55.7147" r="8.41271" stroke-width="0.5" stroke="rgb(0,0,0)" fill="blue"/>
  <circle cx="976.761" cy="55.7147" r="5.05167" stroke-width="0.5" stroke="rgb(0,0,0)" fill="blue"/>
   </g>
   <g id="cell49">
  <circle cx="451.159" cy="739.264" r="8.41271" stroke-width="0.5" stroke="rgb(0,0,0)" fill="blue"/>
  <circle cx="451.159" cy="739.264" r="5.05167" stroke-width="0.5" stroke="rgb(0,0,0)" fill="blue"/>
   </g>
   <g id="cell50">
  <circle cx="39.1878" cy="441.711" r="8.41271" stroke-width="0.5" stroke="rgb(0,0,0)" fill="orange"/>
  <circle cx="39.1878" cy="441.711" r="5.05167" stroke-width="0.5" stroke="rgb(0,0,0)" fill="orange"/>
   </g>
   <g id="cell51">
  <circle cx="979.587" cy="120.197" r="8.41271" stroke-width="0.5" stroke="rgb(0,0,0)" fill="orange"/>
  <circle cx="979.587" cy="120.197" r="5.05167" stroke-width="0.5" stroke="rgb(0,0,0)" fill="orange"/>
   </g>
   <g id="cell52">
  <circle cx="296.14" cy="480.894" r="8.41271" stroke-width="0.5" stroke="rgb(0,0,0)" fill="orange"/>
  <circle cx="296.14" cy="480.894" r="5.05167" stroke-width="0.5" stroke="rgb(0,0,0)" fill="orange"/>
   </g>
   <g id="cell53">
  <circle cx="688.661" cy="317.983" r="8.41271" stroke-width="0.5" stroke="rgb(0,0,0)" fill="orange"/>
  <circle cx="688.661" cy="317.983" r="5.05167" stroke-width="0.5" stroke="rgb(0,0,0)" fill="orange"/>
   </g>
   <g id="cell54">
  <circle cx="414.263" cy="918.235" r="8.41271" stroke-width="0.5" stroke="rgb(0,0,0)" fill="orange"/>
  <circle cx="414.263" cy="918.235" r="5.05167" stroke-width="0.5" stroke="rgb(0,0,0)" fill="orange"/>
   </g>
  </g>
 </g>
  <rect x="775" y="1035" width="200" height="10" stroke-width="2" stroke="rgb(255,255,255)" fill="rgb(0,0,0)"/>
  <text x="781.25" y="1028.75"
   font-family="Arial" font-size="25" fill="black" >
   200 &#956;m
  </text>
  <text x="25" y="1045"
   font-family="Arial" font-size="18.75" fill="black" >
   0 days, 0 hours, 0 minutes, and 13.8570 seconds
  </text>
  <rect x="0" y="70" width="1000" height="1000" stroke-width="2" stroke="rgb(0,0,0)" fill="none"/>
</svg>
