<?xml version="1.0" encoding="UTF-8" standalone="no"?>
<!-- Created with PhysiCell (http://PhysiCell.MathCancer.org/) -->
<svg 
 xmlns:dc="http://purl.org/dc/elements/1.1/" 
 xmlns:cc="http://creativecommons.org/ns#" 
 xmlns:rdf="http://www.w3.org/1999/02/22-rdf-syntax-ns#" 
 xmlns:svg="http://www.w3.org/2000/svg" 
 xmlns="http://www.w3.org/2000/svg" 
 version="1.1" 
 width="1000" 
 height="1070" 
 id="svg2">
  <rect x="0" y="0" width="1000" height="1070" stroke-width="2" stroke="white" fill="white"/>
  <text x="12.5" y="30"
   font-family="Arial" font-size="25" fill="black" >
   Current time: 0 days, 1 hours, and 0.00 minutes, z = 0.00 &#956;m
  </text>
  <text x="12.5" y="57.5"
   font-family="Arial" font-size="23.75" fill="black" >
   55 agents
  </text>
 <g id="tissue" 
    transform="translate(0,1070) scale(1,-1)">
  <g id="ECM">
  </g>
  <g id="cells">
   <g id="cell0">
  <circle cx="563.382" cy="588.72" r="8.41271" stroke-width="0.5" stroke="rgb(0,0,0)" fill="blue"/>
  <circle cx="563.382" cy="588.72" r="5.05167" stroke-width="0.5" stroke="rgb(0,0,0)" fill="blue"/>
   </g>
   <g id="cell1">
  <circle cx="831.018" cy="601.881" r="8.41271" stroke-width="0.5" stroke="rgb(0,0,0)" fill="blue"/>
  <circle cx="831.018" cy="601.881" r="5.05167" stroke-width="0.5" stroke="rgb(0,0,0)" fill="blue"/>
   </g>
   <g id="cell2">
  <circle cx="545.609" cy="837.695" r="8.41271" stroke-width="0.5" stroke="rgb(0,0,0)" fill="blue"/>
  <circle cx="545.609" cy="837.695" r="5.05167" stroke-width="0.5" stroke="rgb(0,0,0)" fill="blue"/>
   </g>
   <g id="cell3">
  <circle cx="611.376" cy="637.032" r="8.41271" stroke-width="0.5" stroke="rgb(0,0,0)" fill="blue"/>
  <circle cx="611.376" cy="637.032" r="5.05167" stroke-width="0.5" stroke="rgb(0,0,0)" fill="blue"/>
   </g>
   <g id="cell4">
  <circle cx="439.25" cy="297.024" r="8.41271" stroke-width="0.5" stroke="rgb(0,0,0)" fill="blue"/>
  <circle cx="439.25" cy="297.024" r="5.05167" stroke-width="0.5" stroke="rgb(0,0,0)" fill="blue"/>
   </g>
   <g id="cell5">
  <circle cx="48.3396" cy="957.289" r="8.41271" stroke-width="0.5" stroke="rgb(0,0,0)" fill="blue"/>
  <circle cx="48.3396" cy="957.289" r="5.05167" stroke-width="0.5" stroke="rgb(0,0,0)" fill="blue"/>
   </g>
   <g id="cell6">
  <circle cx="401.447" cy="481.876" r="8.41271" stroke-width="0.5" stroke="rgb(0,0,0)" fill="blue"/>
  <circle cx="401.447" cy="481.876" r="5.05167" stroke-width="0.5" stroke="rgb(0,0,0)" fill="blue"/>
   </g>
   <g id="cell7">
  <circle cx="800.519" cy="526.637" r="8.41271" stroke-width="0.5" stroke="rgb(0,0,0)" fill="blue"/>
  <circle cx="800.519" cy="526.637" r="5.05167" stroke-width="0.5" stroke="rgb(0,0,0)" fill="blue"/>
   </g>
   <g id="cell8">
  <circle cx="557.541" cy="397.592" r="8.41271" stroke-width="0.5" stroke="rgb(0,0,0)" fill="blue"/>
  <circle cx="557.541" cy="397.592" r="5.05167" stroke-width="0.5" stroke="rgb(0,0,0)" fill="blue"/>
   </g>
   <g id="cell9">
  <circle cx="836.722" cy="80.9113" r="8.41271" stroke-width="0.5" stroke="rgb(0,0,0)" fill="blue"/>
  <circle cx="836.722" cy="80.9113" r="5.05167" stroke-width="0.5" stroke="rgb(0,0,0)" fill="blue"/>
   </g>
   <g id="cell10">
  <circle cx="95.597" cy="643.349" r="8.54454" stroke-width="0.5" stroke="rgb(0,0,0)" fill="blue"/>
  <circle cx="95.597" cy="643.349" r="5.14947" stroke-width="0.5" stroke="rgb(0,0,0)" fill="blue"/>
   </g>
   <g id="cell11">
  <circle cx="367.55" cy="824.94" r="8.41271" stroke-width="0.5" stroke="rgb(0,0,0)" fill="blue"/>
  <circle cx="367.55" cy="824.94" r="5.05167" stroke-width="0.5" stroke="rgb(0,0,0)" fill="blue"/>
   </g>
   <g id="cell12">
  <circle cx="776.302" cy="155.192" r="8.41271" stroke-width="0.5" stroke="rgb(0,0,0)" fill="blue"/>
  <circle cx="776.302" cy="155.192" r="5.05167" stroke-width="0.5" stroke="rgb(0,0,0)" fill="blue"/>
   </g>
   <g id="cell13">
  <circle cx="862.281" cy="961.128" r="8.41271" stroke-width="0.5" stroke="rgb(0,0,0)" fill="blue"/>
  <circle cx="862.281" cy="961.128" r="5.05167" stroke-width="0.5" stroke="rgb(0,0,0)" fill="blue"/>
   </g>
   <g id="cell14">
  <circle cx="785.714" cy="788.65" r="8.4325" stroke-width="0.5" stroke="rgb(0,0,0)" fill="blue"/>
  <circle cx="785.714" cy="788.65" r="5.06552" stroke-width="0.5" stroke="rgb(0,0,0)" fill="blue"/>
   </g>
   <g id="cell15">
  <circle cx="517.155" cy="771.514" r="8.41271" stroke-width="0.5" stroke="rgb(0,0,0)" fill="blue"/>
  <circle cx="517.155" cy="771.514" r="5.05167" stroke-width="0.5" stroke="rgb(0,0,0)" fill="blue"/>
   </g>
   <g id="cell16">
  <circle cx="127.359" cy="724.75" r="8.41271" stroke-width="0.5" stroke="rgb(0,0,0)" fill="blue"/>
  <circle cx="127.359" cy="724.75" r="5.05167" stroke-width="0.5" stroke="rgb(0,0,0)" fill="blue"/>
   </g>
   <g id="cell17">
  <circle cx="580.526" cy="149.008" r="8.41271" stroke-width="0.5" stroke="rgb(0,0,0)" fill="blue"/>
  <circle cx="580.526" cy="149.008" r="5.05167" stroke-width="0.5" stroke="rgb(0,0,0)" fill="blue"/>
   </g>
   <g id="cell18">
  <circle cx="934.185" cy="759.763" r="8.41271" stroke-width="0.5" stroke="rgb(0,0,0)" fill="blue"/>
  <circle cx="934.185" cy="759.763" r="5.05167" stroke-width="0.5" stroke="rgb(0,0,0)" fill="blue"/>
   </g>
   <g id="cell19">
  <circle cx="120.106" cy="414.046" r="8.41271" stroke-width="0.5" stroke="rgb(0,0,0)" fill="blue"/>
  <circle cx="120.106" cy="414.046" r="5.05167" stroke-width="0.5" stroke="rgb(0,0,0)" fill="blue"/>
   </g>
   <g id="cell20">
  <circle cx="269.183" cy="200.709" r="8.41271" stroke-width="0.5" stroke="rgb(0,0,0)" fill="blue"/>
  <circle cx="269.183" cy="200.709" r="5.05167" stroke-width="0.5" stroke="rgb(0,0,0)" fill="blue"/>
   </g>
   <g id="cell21">
  <circle cx="738.101" cy="467.55" r="8.41271" stroke-width="0.5" stroke="rgb(0,0,0)" fill="blue"/>
  <circle cx="738.101" cy="467.55" r="5.05167" stroke-width="0.5" stroke="rgb(0,0,0)" fill="blue"/>
   </g>
   <g id="cell22">
  <circle cx="569.526" cy="138.679" r="8.41271" stroke-width="0.5" stroke="rgb(0,0,0)" fill="blue"/>
  <circle cx="569.526" cy="138.679" r="5.05167" stroke-width="0.5" stroke="rgb(0,0,0)" fill="blue"/>
   </g>
   <g id="cell23">
  <circle cx="328.787" cy="628.734" r="8.41271" stroke-width="0.5" stroke="rgb(0,0,0)" fill="blue"/>
  <circle cx="328.787" cy="628.734" r="5.05167" stroke-width="0.5" stroke="rgb(0,0,0)" fill="blue"/>
   </g>
   <g id="cell24">
  <circle cx="608.167" cy="209.205" r="8.41271" stroke-width="0.5" stroke="rgb(0,0,0)" fill="blue"/>
  <circle cx="608.167" cy="209.205" r="5.05167" stroke-width="0.5" stroke="rgb(0,0,0)" fill="blue"/>
   </g>
   <g id="cell25">
  <circle cx="382.782" cy="937.563" r="8.41271" stroke-width="0.5" stroke="rgb(0,0,0)" fill="blue"/>
  <circle cx="382.782" cy="937.563" r="5.05167" stroke-width="0.5" stroke="rgb(0,0,0)" fill="blue"/>
   </g>
   <g id="cell26">
  <circle cx="676.414" cy="456.213" r="8.41271" stroke-width="0.5" stroke="rgb(0,0,0)" fill="blue"/>
  <circle cx="676.414" cy="456.213" r="5.05167" stroke-width="0.5" stroke="rgb(0,0,0)" fill="blue"/>
   </g>
   <g id="cell27">
  <circle cx="607.197" cy="451.508" r="8.41271" stroke-width="0.5" stroke="rgb(0,0,0)" fill="blue"/>
  <circle cx="607.197" cy="451.508" r="5.05167" stroke-width="0.5" stroke="rgb(0,0,0)" fill="blue"/>
   </g>
   <g id="cell28">
  <circle cx="706.305" cy="110.003" r="8.41271" stroke-width="0.5" stroke="rgb(0,0,0)" fill="blue"/>
  <circle cx="706.305" cy="110.003" r="5.05167" stroke-width="0.5" stroke="rgb(0,0,0)" fill="blue"/>
   </g>
   <g id="cell29">
  <circle cx="959.919" cy="665.54" r="8.41271" stroke-width="0.5" stroke="rgb(0,0,0)" fill="blue"/>
  <circle cx="959.919" cy="665.54" r="5.05167" stroke-width="0.5" stroke="rgb(0,0,0)" fill="blue"/>
   </g>
   <g id="cell30">
  <circle cx="665.253" cy="178.434" r="8.41271" stroke-width="0.5" stroke="rgb(0,0,0)" fill="blue"/>
  <circle cx="665.253" cy="178.434" r="5.05167" stroke-width="0.5" stroke="rgb(0,0,0)" fill="blue"/>
   </g>
   <g id="cell31">
  <circle cx="359.494" cy="142.768" r="8.41271" stroke-width="0.5" stroke="rgb(0,0,0)" fill="blue"/>
  <circle cx="359.494" cy="142.768" r="5.05167" stroke-width="0.5" stroke="rgb(0,0,0)" fill="blue"/>
   </g>
   <g id="cell32">
  <circle cx="315.508" cy="617.132" r="8.41271" stroke-width="0.5" stroke="rgb(0,0,0)" fill="blue"/>
  <circle cx="315.508" cy="617.132" r="5.05167" stroke-width="0.5" stroke="rgb(0,0,0)" fill="blue"/>
   </g>
   <g id="cell33">
  <circle cx="334.823" cy="579.756" r="8.41271" stroke-width="0.5" stroke="rgb(0,0,0)" fill="blue"/>
  <circle cx="334.823" cy="579.756" r="5.05167" stroke-width="0.5" stroke="rgb(0,0,0)" fill="blue"/>
   </g>
   <g id="cell34">
  <circle cx="447.184" cy="641.357" r="8.41271" stroke-width="0.5" stroke="rgb(0,0,0)" fill="blue"/>
  <circle cx="447.184" cy="641.357" r="5.05167" stroke-width="0.5" stroke="rgb(0,0,0)" fill="blue"/>
   </g>
   <g id="cell35">
  <circle cx="958.649" cy="95.7778" r="8.41271" stroke-width="0.5" stroke="rgb(0,0,0)" fill="blue"/>
  <circle cx="958.649" cy="95.7778" r="5.05167" stroke-width="0.5" stroke="rgb(0,0,0)" fill="blue"/>
   </g>
   <g id="cell36">
  <circle cx="208.503" cy="647.308" r="8.41271" stroke-width="0.5" stroke="rgb(0,0,0)" fill="blue"/>
  <circle cx="208.503" cy="647.308" r="5.05167" stroke-width="0.5" stroke="rgb(0,0,0)" fill="blue"/>
   </g>
   <g id="cell37">
  <circle cx="985.343" cy="653.297" r="8.41271" stroke-width="0.5" stroke="rgb(0,0,0)" fill="blue"/>
  <circle cx="985.343" cy="653.297" r="5.05167" stroke-width="0.5" stroke="rgb(0,0,0)" fill="blue"/>
   </g>
   <g id="cell38">
  <circle cx="250.5" cy="404.783" r="8.41271" stroke-width="0.5" stroke="rgb(0,0,0)" fill="blue"/>
  <circle cx="250.5" cy="404.783" r="5.05167" stroke-width="0.5" stroke="rgb(0,0,0)" fill="blue"/>
   </g>
   <g id="cell39">
  <circle cx="467.443" cy="250.033" r="8.41271" stroke-width="0.5" stroke="rgb(0,0,0)" fill="blue"/>
  <circle cx="467.443" cy="250.033" r="5.05167" stroke-width="0.5" stroke="rgb(0,0,0)" fill="blue"/>
   </g>
   <g id="cell40">
  <circle cx="174.91" cy="337.074" r="8.41271" stroke-width="0.5" stroke="rgb(0,0,0)" fill="blue"/>
  <circle cx="174.91" cy="337.074" r="5.05167" stroke-width="0.5" stroke="rgb(0,0,0)" fill="blue"/>
   </g>
   <g id="cell41">
  <circle cx="667.833" cy="654.611" r="8.41271" stroke-width="0.5" stroke="rgb(0,0,0)" fill="blue"/>
  <circle cx="667.833" cy="654.611" r="5.05167" stroke-width="0.5" stroke="rgb(0,0,0)" fill="blue"/>
   </g>
   <g id="cell42">
  <circle cx="146.154" cy="777.937" r="8.41271" stroke-width="0.5" stroke="rgb(0,0,0)" fill="blue"/>
  <circle cx="146.154" cy="777.937" r="5.05167" stroke-width="0.5" stroke="rgb(0,0,0)" fill="blue"/>
   </g>
   <g id="cell43">
  <circle cx="936.142" cy="368.821" r="8.41271" stroke-width="0.5" stroke="rgb(0,0,0)" fill="blue"/>
  <circle cx="936.142" cy="368.821" r="5.05167" stroke-width="0.5" stroke="rgb(0,0,0)" fill="blue"/>
   </g>
   <g id="cell44">
  <circle cx="820.781" cy="14.2274" r="4.64437" stroke-width="0.5" stroke="rgb(0,0,0)" fill="rgb(255,0,0)"/>
  <circle cx="820.781" cy="14.2274" r="3.17578" stroke-width="0.5" stroke="rgb(0,0,0)" fill="rgb(125,0,0)"/>
   </g>
   <g id="cell45">
  <circle cx="621.711" cy="826.531" r="8.41271" stroke-width="0.5" stroke="rgb(0,0,0)" fill="blue"/>
  <circle cx="621.711" cy="826.531" r="5.05167" stroke-width="0.5" stroke="rgb(0,0,0)" fill="blue"/>
   </g>
   <g id="cell46">
  <circle cx="98.6756" cy="960.933" r="8.54454" stroke-width="0.5" stroke="rgb(0,0,0)" fill="blue"/>
  <circle cx="98.6756" cy="960.933" r="5.14947" stroke-width="0.5" stroke="rgb(0,0,0)" fill="blue"/>
   </g>
   <g id="cell47">
  <circle cx="863.033" cy="463.518" r="8.41271" stroke-width="0.5" stroke="rgb(0,0,0)" fill="blue"/>
  <circle cx="863.033" cy="463.518" r="5.05167" stroke-width="0.5" stroke="rgb(0,0,0)" fill="blue"/>
   </g>
   <g id="cell48">
  <circle cx="961.373" cy="56.1207" r="8.41271" stroke-width="0.5" stroke="rgb(0,0,0)" fill="blue"/>
  <circle cx="961.373" cy="56.1207" r="5.05167" stroke-width="0.5" stroke="rgb(0,0,0)" fill="blue"/>
   </g>
   <g id="cell49">
  <circle cx="455.376" cy="729.882" r="8.41271" stroke-width="0.5" stroke="rgb(0,0,0)" fill="blue"/>
  <circle cx="455.376" cy="729.882" r="5.05167" stroke-width="0.5" stroke="rgb(0,0,0)" fill="blue"/>
   </g>
   <g id="cell50">
  <circle cx="98.4958" cy="421.116" r="8.41271" stroke-width="0.5" stroke="rgb(0,0,0)" fill="orange"/>
  <circle cx="98.4958" cy="421.116" r="5.05167" stroke-width="0.5" stroke="rgb(0,0,0)" fill="orange"/>
   </g>
   <g id="cell51">
  <circle cx="954.14" cy="78.3406" r="8.41271" stroke-width="0.5" stroke="rgb(0,0,0)" fill="orange"/>
  <circle cx="954.14" cy="78.3406" r="5.05167" stroke-width="0.5" stroke="rgb(0,0,0)" fill="orange"/>
   </g>
   <g id="cell52">
  <circle cx="328.867" cy="536.858" r="8.41271" stroke-width="0.5" stroke="rgb(0,0,0)" fill="orange"/>
  <circle cx="328.867" cy="536.858" r="5.05167" stroke-width="0.5" stroke="rgb(0,0,0)" fill="orange"/>
   </g>
   <g id="cell53">
  <circle cx="612.966" cy="309.795" r="8.41271" stroke-width="0.5" stroke="rgb(0,0,0)" fill="orange"/>
  <circle cx="612.966" cy="309.795" r="5.05167" stroke-width="0.5" stroke="rgb(0,0,0)" fill="orange"/>
   </g>
   <g id="cell54">
  <circle cx="389.395" cy="919.811" r="8.41271" stroke-width="0.5" stroke="rgb(0,0,0)" fill="orange"/>
  <circle cx="389.395" cy="919.811" r="5.05167" stroke-width="0.5" stroke="rgb(0,0,0)" fill="orange"/>
   </g>
  </g>
 </g>
  <rect x="775" y="1035" width="200" height="10" stroke-width="2" stroke="rgb(255,255,255)" fill="rgb(0,0,0)"/>
  <text x="781.25" y="1028.75"
   font-family="Arial" font-size="25" fill="black" >
   200 &#956;m
  </text>
  <text x="25" y="1045"
   font-family="Arial" font-size="18.75" fill="black" >
   0 days, 0 hours, 0 minutes, and 2.7802 seconds
  </text>
  <rect x="0" y="70" width="1000" height="1000" stroke-width="2" stroke="rgb(0,0,0)" fill="none"/>
</svg>
