<?xml version="1.0" encoding="UTF-8" standalone="no"?>
<!-- Created with PhysiCell (http://PhysiCell.MathCancer.org/) -->
<svg 
 xmlns:dc="http://purl.org/dc/elements/1.1/" 
 xmlns:cc="http://creativecommons.org/ns#" 
 xmlns:rdf="http://www.w3.org/1999/02/22-rdf-syntax-ns#" 
 xmlns:svg="http://www.w3.org/2000/svg" 
 xmlns="http://www.w3.org/2000/svg" 
 version="1.1" 
 width="1000" 
 height="1070" 
 id="svg2">
  <rect x="0" y="0" width="1000" height="1070" stroke-width="2" stroke="white" fill="white"/>
  <text x="12.5" y="30"
   font-family="Arial" font-size="25" fill="black" >
   Current time: 0 days, 2 hours, and 0.00 minutes, z = 0.00 &#956;m
  </text>
  <text x="12.5" y="57.5"
   font-family="Arial" font-size="23.75" fill="black" >
   55 agents
  </text>
 <g id="tissue" 
    transform="translate(0,1070) scale(1,-1)">
  <g id="ECM">
  </g>
  <g id="cells">
   <g id="cell0">
  <circle cx="567.729" cy="598.286" r="8.41271" stroke-width="0.5" stroke="rgb(0,0,0)" fill="blue"/>
  <circle cx="567.729" cy="598.286" r="5.05167" stroke-width="0.5" stroke="rgb(0,0,0)" fill="blue"/>
   </g>
   <g id="cell1">
  <circle cx="818.324" cy="603.058" r="8.41271" stroke-width="0.5" stroke="rgb(0,0,0)" fill="blue"/>
  <circle cx="818.324" cy="603.058" r="5.05167" stroke-width="0.5" stroke="rgb(0,0,0)" fill="blue"/>
   </g>
   <g id="cell2">
  <circle cx="549.056" cy="831.153" r="8.41271" stroke-width="0.5" stroke="rgb(0,0,0)" fill="blue"/>
  <circle cx="549.056" cy="831.153" r="5.05167" stroke-width="0.5" stroke="rgb(0,0,0)" fill="blue"/>
   </g>
   <g id="cell3">
  <circle cx="606.053" cy="622.986" r="8.41271" stroke-width="0.5" stroke="rgb(0,0,0)" fill="blue"/>
  <circle cx="606.053" cy="622.986" r="5.05167" stroke-width="0.5" stroke="rgb(0,0,0)" fill="blue"/>
   </g>
   <g id="cell4">
  <circle cx="428.387" cy="307.823" r="8.41271" stroke-width="0.5" stroke="rgb(0,0,0)" fill="blue"/>
  <circle cx="428.387" cy="307.823" r="5.05167" stroke-width="0.5" stroke="rgb(0,0,0)" fill="blue"/>
   </g>
   <g id="cell5">
  <circle cx="47.3356" cy="951.55" r="8.41271" stroke-width="0.5" stroke="rgb(0,0,0)" fill="blue"/>
  <circle cx="47.3356" cy="951.55" r="5.05167" stroke-width="0.5" stroke="rgb(0,0,0)" fill="blue"/>
   </g>
   <g id="cell6">
  <circle cx="404.859" cy="474.527" r="8.41271" stroke-width="0.5" stroke="rgb(0,0,0)" fill="blue"/>
  <circle cx="404.859" cy="474.527" r="5.05167" stroke-width="0.5" stroke="rgb(0,0,0)" fill="blue"/>
   </g>
   <g id="cell7">
  <circle cx="792.018" cy="529.844" r="8.41271" stroke-width="0.5" stroke="rgb(0,0,0)" fill="blue"/>
  <circle cx="792.018" cy="529.844" r="5.05167" stroke-width="0.5" stroke="rgb(0,0,0)" fill="blue"/>
   </g>
   <g id="cell8">
  <circle cx="552.625" cy="405.568" r="8.41271" stroke-width="0.5" stroke="rgb(0,0,0)" fill="blue"/>
  <circle cx="552.625" cy="405.568" r="5.05167" stroke-width="0.5" stroke="rgb(0,0,0)" fill="blue"/>
   </g>
   <g id="cell9">
  <circle cx="839.683" cy="87.8551" r="8.61424" stroke-width="0.5" stroke="rgb(0,0,0)" fill="blue"/>
  <circle cx="839.683" cy="87.8551" r="5.20061" stroke-width="0.5" stroke="rgb(0,0,0)" fill="blue"/>
   </g>
   <g id="cell10">
  <circle cx="104.728" cy="643.753" r="8.9283" stroke-width="0.5" stroke="rgb(0,0,0)" fill="blue"/>
  <circle cx="104.728" cy="643.753" r="5.4161" stroke-width="0.5" stroke="rgb(0,0,0)" fill="blue"/>
   </g>
   <g id="cell11">
  <circle cx="364.28" cy="820.318" r="8.41271" stroke-width="0.5" stroke="rgb(0,0,0)" fill="blue"/>
  <circle cx="364.28" cy="820.318" r="5.05167" stroke-width="0.5" stroke="rgb(0,0,0)" fill="blue"/>
   </g>
   <g id="cell12">
  <circle cx="778.768" cy="168.543" r="8.4325" stroke-width="0.5" stroke="rgb(0,0,0)" fill="blue"/>
  <circle cx="778.768" cy="168.543" r="5.06552" stroke-width="0.5" stroke="rgb(0,0,0)" fill="blue"/>
   </g>
   <g id="cell13">
  <circle cx="858.718" cy="946.951" r="8.41271" stroke-width="0.5" stroke="rgb(0,0,0)" fill="blue"/>
  <circle cx="858.718" cy="946.951" r="5.05167" stroke-width="0.5" stroke="rgb(0,0,0)" fill="blue"/>
   </g>
   <g id="cell14">
  <circle cx="776.697" cy="784.294" r="8.7678" stroke-width="0.5" stroke="rgb(0,0,0)" fill="blue"/>
  <circle cx="776.697" cy="784.294" r="5.30857" stroke-width="0.5" stroke="rgb(0,0,0)" fill="blue"/>
   </g>
   <g id="cell15">
  <circle cx="522.793" cy="762.318" r="8.41271" stroke-width="0.5" stroke="rgb(0,0,0)" fill="blue"/>
  <circle cx="522.793" cy="762.318" r="5.05167" stroke-width="0.5" stroke="rgb(0,0,0)" fill="blue"/>
   </g>
   <g id="cell16">
  <circle cx="133.816" cy="722.306" r="8.65127" stroke-width="0.5" stroke="rgb(0,0,0)" fill="blue"/>
  <circle cx="133.816" cy="722.306" r="5.2272" stroke-width="0.5" stroke="rgb(0,0,0)" fill="blue"/>
   </g>
   <g id="cell17">
  <circle cx="585.676" cy="163.73" r="8.4325" stroke-width="0.5" stroke="rgb(0,0,0)" fill="blue"/>
  <circle cx="585.676" cy="163.73" r="5.06552" stroke-width="0.5" stroke="rgb(0,0,0)" fill="blue"/>
   </g>
   <g id="cell18">
  <circle cx="923.85" cy="760.464" r="8.41271" stroke-width="0.5" stroke="rgb(0,0,0)" fill="blue"/>
  <circle cx="923.85" cy="760.464" r="5.05167" stroke-width="0.5" stroke="rgb(0,0,0)" fill="blue"/>
   </g>
   <g id="cell19">
  <circle cx="134.738" cy="393.662" r="8.41271" stroke-width="0.5" stroke="rgb(0,0,0)" fill="blue"/>
  <circle cx="134.738" cy="393.662" r="5.05167" stroke-width="0.5" stroke="rgb(0,0,0)" fill="blue"/>
   </g>
   <g id="cell20">
  <circle cx="270.69" cy="206.421" r="8.41271" stroke-width="0.5" stroke="rgb(0,0,0)" fill="blue"/>
  <circle cx="270.69" cy="206.421" r="5.05167" stroke-width="0.5" stroke="rgb(0,0,0)" fill="blue"/>
   </g>
   <g id="cell21">
  <circle cx="725.586" cy="465.418" r="8.41271" stroke-width="0.5" stroke="rgb(0,0,0)" fill="blue"/>
  <circle cx="725.586" cy="465.418" r="5.05167" stroke-width="0.5" stroke="rgb(0,0,0)" fill="blue"/>
   </g>
   <g id="cell22">
  <circle cx="571.714" cy="141.886" r="8.41271" stroke-width="0.5" stroke="rgb(0,0,0)" fill="blue"/>
  <circle cx="571.714" cy="141.886" r="5.05167" stroke-width="0.5" stroke="rgb(0,0,0)" fill="blue"/>
   </g>
   <g id="cell23">
  <circle cx="331.248" cy="640.455" r="8.41271" stroke-width="0.5" stroke="rgb(0,0,0)" fill="blue"/>
  <circle cx="331.248" cy="640.455" r="5.05167" stroke-width="0.5" stroke="rgb(0,0,0)" fill="blue"/>
   </g>
   <g id="cell24">
  <circle cx="606.048" cy="202.627" r="8.41271" stroke-width="0.5" stroke="rgb(0,0,0)" fill="blue"/>
  <circle cx="606.048" cy="202.627" r="5.05167" stroke-width="0.5" stroke="rgb(0,0,0)" fill="blue"/>
   </g>
   <g id="cell25">
  <circle cx="381.941" cy="946.967" r="8.41271" stroke-width="0.5" stroke="rgb(0,0,0)" fill="blue"/>
  <circle cx="381.941" cy="946.967" r="5.05167" stroke-width="0.5" stroke="rgb(0,0,0)" fill="blue"/>
   </g>
   <g id="cell26">
  <circle cx="680.396" cy="468.851" r="8.41271" stroke-width="0.5" stroke="rgb(0,0,0)" fill="blue"/>
  <circle cx="680.396" cy="468.851" r="5.05167" stroke-width="0.5" stroke="rgb(0,0,0)" fill="blue"/>
   </g>
   <g id="cell27">
  <circle cx="601.884" cy="459.036" r="8.41271" stroke-width="0.5" stroke="rgb(0,0,0)" fill="blue"/>
  <circle cx="601.884" cy="459.036" r="5.05167" stroke-width="0.5" stroke="rgb(0,0,0)" fill="blue"/>
   </g>
   <g id="cell28">
  <circle cx="700.163" cy="121.773" r="8.41271" stroke-width="0.5" stroke="rgb(0,0,0)" fill="blue"/>
  <circle cx="700.163" cy="121.773" r="5.05167" stroke-width="0.5" stroke="rgb(0,0,0)" fill="blue"/>
   </g>
   <g id="cell29">
  <circle cx="942.269" cy="666.115" r="8.41271" stroke-width="0.5" stroke="rgb(0,0,0)" fill="blue"/>
  <circle cx="942.269" cy="666.115" r="5.05167" stroke-width="0.5" stroke="rgb(0,0,0)" fill="blue"/>
   </g>
   <g id="cell30">
  <circle cx="663.641" cy="186.78" r="8.41271" stroke-width="0.5" stroke="rgb(0,0,0)" fill="blue"/>
  <circle cx="663.641" cy="186.78" r="5.05167" stroke-width="0.5" stroke="rgb(0,0,0)" fill="blue"/>
   </g>
   <g id="cell31">
  <circle cx="361.615" cy="154.683" r="8.41271" stroke-width="0.5" stroke="rgb(0,0,0)" fill="blue"/>
  <circle cx="361.615" cy="154.683" r="5.05167" stroke-width="0.5" stroke="rgb(0,0,0)" fill="blue"/>
   </g>
   <g id="cell32">
  <circle cx="303.135" cy="627.599" r="8.41271" stroke-width="0.5" stroke="rgb(0,0,0)" fill="blue"/>
  <circle cx="303.135" cy="627.599" r="5.05167" stroke-width="0.5" stroke="rgb(0,0,0)" fill="blue"/>
   </g>
   <g id="cell33">
  <circle cx="355.494" cy="590.505" r="8.72828" stroke-width="0.5" stroke="rgb(0,0,0)" fill="blue"/>
  <circle cx="355.494" cy="590.505" r="5.28134" stroke-width="0.5" stroke="rgb(0,0,0)" fill="blue"/>
   </g>
   <g id="cell34">
  <circle cx="456.148" cy="648.143" r="8.41271" stroke-width="0.5" stroke="rgb(0,0,0)" fill="blue"/>
  <circle cx="456.148" cy="648.143" r="5.05167" stroke-width="0.5" stroke="rgb(0,0,0)" fill="blue"/>
   </g>
   <g id="cell35">
  <circle cx="953.744" cy="105.97" r="8.41271" stroke-width="0.5" stroke="rgb(0,0,0)" fill="blue"/>
  <circle cx="953.744" cy="105.97" r="5.05167" stroke-width="0.5" stroke="rgb(0,0,0)" fill="blue"/>
   </g>
   <g id="cell36">
  <circle cx="212.83" cy="660.08" r="8.61424" stroke-width="0.5" stroke="rgb(0,0,0)" fill="blue"/>
  <circle cx="212.83" cy="660.08" r="5.20061" stroke-width="0.5" stroke="rgb(0,0,0)" fill="blue"/>
   </g>
   <g id="cell37">
  <circle cx="974.725" cy="653.655" r="8.41271" stroke-width="0.5" stroke="rgb(0,0,0)" fill="blue"/>
  <circle cx="974.725" cy="653.655" r="5.05167" stroke-width="0.5" stroke="rgb(0,0,0)" fill="blue"/>
   </g>
   <g id="cell38">
  <circle cx="259.443" cy="398.178" r="8.41271" stroke-width="0.5" stroke="rgb(0,0,0)" fill="blue"/>
  <circle cx="259.443" cy="398.178" r="5.05167" stroke-width="0.5" stroke="rgb(0,0,0)" fill="blue"/>
   </g>
   <g id="cell39">
  <circle cx="462.13" cy="254.945" r="8.41271" stroke-width="0.5" stroke="rgb(0,0,0)" fill="blue"/>
  <circle cx="462.13" cy="254.945" r="5.05167" stroke-width="0.5" stroke="rgb(0,0,0)" fill="blue"/>
   </g>
   <g id="cell40">
  <circle cx="188.016" cy="332.725" r="8.41271" stroke-width="0.5" stroke="rgb(0,0,0)" fill="blue"/>
  <circle cx="188.016" cy="332.725" r="5.05167" stroke-width="0.5" stroke="rgb(0,0,0)" fill="blue"/>
   </g>
   <g id="cell41">
  <circle cx="655.021" cy="643.257" r="8.41271" stroke-width="0.5" stroke="rgb(0,0,0)" fill="blue"/>
  <circle cx="655.021" cy="643.257" r="5.05167" stroke-width="0.5" stroke="rgb(0,0,0)" fill="blue"/>
   </g>
   <g id="cell42">
  <circle cx="152.034" cy="769.766" r="8.72828" stroke-width="0.5" stroke="rgb(0,0,0)" fill="blue"/>
  <circle cx="152.034" cy="769.766" r="5.28134" stroke-width="0.5" stroke="rgb(0,0,0)" fill="blue"/>
   </g>
   <g id="cell43">
  <circle cx="920.868" cy="364.471" r="8.41271" stroke-width="0.5" stroke="rgb(0,0,0)" fill="blue"/>
  <circle cx="920.868" cy="364.471" r="5.05167" stroke-width="0.5" stroke="rgb(0,0,0)" fill="blue"/>
   </g>
   <g id="cell44">
  <circle cx="820.781" cy="14.2274" r="3.27739" stroke-width="0.5" stroke="rgb(0,0,0)" fill="rgb(255,0,0)"/>
  <circle cx="820.781" cy="14.2274" r="2.58717" stroke-width="0.5" stroke="rgb(0,0,0)" fill="rgb(125,0,0)"/>
   </g>
   <g id="cell45">
  <circle cx="617.068" cy="812.375" r="8.41271" stroke-width="0.5" stroke="rgb(0,0,0)" fill="blue"/>
  <circle cx="617.068" cy="812.375" r="5.05167" stroke-width="0.5" stroke="rgb(0,0,0)" fill="blue"/>
   </g>
   <g id="cell46">
  <circle cx="95.7254" cy="954.43" r="8.9283" stroke-width="0.5" stroke="rgb(0,0,0)" fill="blue"/>
  <circle cx="95.7254" cy="954.43" r="5.4161" stroke-width="0.5" stroke="rgb(0,0,0)" fill="blue"/>
   </g>
   <g id="cell47">
  <circle cx="857.244" cy="462.321" r="8.41271" stroke-width="0.5" stroke="rgb(0,0,0)" fill="blue"/>
  <circle cx="857.244" cy="462.321" r="5.05167" stroke-width="0.5" stroke="rgb(0,0,0)" fill="blue"/>
   </g>
   <g id="cell48">
  <circle cx="950.826" cy="60.0189" r="8.41271" stroke-width="0.5" stroke="rgb(0,0,0)" fill="blue"/>
  <circle cx="950.826" cy="60.0189" r="5.05167" stroke-width="0.5" stroke="rgb(0,0,0)" fill="blue"/>
   </g>
   <g id="cell49">
  <circle cx="461.221" cy="719.151" r="8.41271" stroke-width="0.5" stroke="rgb(0,0,0)" fill="blue"/>
  <circle cx="461.221" cy="719.151" r="5.05167" stroke-width="0.5" stroke="rgb(0,0,0)" fill="blue"/>
   </g>
   <g id="cell50">
  <circle cx="132.79" cy="407.714" r="8.41271" stroke-width="0.5" stroke="rgb(0,0,0)" fill="orange"/>
  <circle cx="132.79" cy="407.714" r="5.05167" stroke-width="0.5" stroke="rgb(0,0,0)" fill="orange"/>
   </g>
   <g id="cell51">
  <circle cx="944.484" cy="83.7421" r="8.41271" stroke-width="0.5" stroke="rgb(0,0,0)" fill="orange"/>
  <circle cx="944.484" cy="83.7421" r="5.05167" stroke-width="0.5" stroke="rgb(0,0,0)" fill="orange"/>
   </g>
   <g id="cell52">
  <circle cx="337.36" cy="594.173" r="8.41271" stroke-width="0.5" stroke="rgb(0,0,0)" fill="orange"/>
  <circle cx="337.36" cy="594.173" r="5.05167" stroke-width="0.5" stroke="rgb(0,0,0)" fill="orange"/>
   </g>
   <g id="cell53">
  <circle cx="577.775" cy="251.201" r="8.41271" stroke-width="0.5" stroke="rgb(0,0,0)" fill="orange"/>
  <circle cx="577.775" cy="251.201" r="5.05167" stroke-width="0.5" stroke="rgb(0,0,0)" fill="orange"/>
   </g>
   <g id="cell54">
  <circle cx="395.083" cy="940.138" r="8.41271" stroke-width="0.5" stroke="rgb(0,0,0)" fill="orange"/>
  <circle cx="395.083" cy="940.138" r="5.05167" stroke-width="0.5" stroke="rgb(0,0,0)" fill="orange"/>
   </g>
  </g>
 </g>
  <rect x="775" y="1035" width="200" height="10" stroke-width="2" stroke="rgb(255,255,255)" fill="rgb(0,0,0)"/>
  <text x="781.25" y="1028.75"
   font-family="Arial" font-size="25" fill="black" >
   200 &#956;m
  </text>
  <text x="25" y="1045"
   font-family="Arial" font-size="18.75" fill="black" >
   0 days, 0 hours, 0 minutes, and 5.3042 seconds
  </text>
  <rect x="0" y="70" width="1000" height="1000" stroke-width="2" stroke="rgb(0,0,0)" fill="none"/>
</svg>
